<?xml version="1.0" encoding="UTF-8" standalone="no"?>
<!-- Created with Inkscape (http://www.inkscape.org/) -->

<svg
   width="134.27475mm"
   height="129.73991mm"
   viewBox="0 0 134.27475 129.73991"
   version="1.1"
   id="svg1"
   xml:space="preserve"
   xmlns:inkscape="http://www.inkscape.org/namespaces/inkscape"
   xmlns:sodipodi="http://sodipodi.sourceforge.net/DTD/sodipodi-0.dtd"
   xmlns="http://www.w3.org/2000/svg"
   xmlns:svg="http://www.w3.org/2000/svg"><sodipodi:namedview
     id="namedview1"
     pagecolor="#ffffff"
     bordercolor="#000000"
     borderopacity="0.25"
     inkscape:showpageshadow="2"
     inkscape:pageopacity="0.0"
     inkscape:pagecheckerboard="0"
     inkscape:deskcolor="#d1d1d1"
     inkscape:document-units="mm"
     inkscape:zoom="2.3001824"
     inkscape:cx="422.14044"
     inkscape:cy="584.51887"
     inkscape:window-width="2880"
     inkscape:window-height="1526"
     inkscape:window-x="408"
     inkscape:window-y="-11"
     inkscape:window-maximized="1"
     inkscape:current-layer="layer1" /><defs
     id="defs1" /><g
     inkscape:label="Calque 1"
     inkscape:groupmode="layer"
     id="layer1"
     transform="translate(-39.581269,-52.427065)"><path
       style="fill:#fb8267;fill-opacity:1;stroke:none;stroke-width:0.335;stroke-dasharray:none"
       d="m 91.698547,181.50019 c -13.013684,-2.14214 -24.43683,-8.48763 -33.255616,-18.47331 l -1.363399,-1.54381 1.020628,-1.50203 c 5.291979,-7.7881 8.129281,-15.72253 10.088447,-28.21202 0.211365,-1.34732 0.448058,-2.76633 0.526025,-3.15336 l 0.141795,-0.70368 1.379883,0.75673 c 15.692152,8.60549 30.63832,13.50596 43.37131,14.22036 2.81271,0.1578 5.28622,0.16266 7.41954,0.0146 0.68903,-0.0478 1.26992,-0.066 1.29084,-0.0405 0.0209,0.0256 0.0631,0.87964 0.0937,1.89792 0.0689,2.29383 -0.37273,8.0204 -0.77388,10.03525 -1.66745,8.37423 -5.24218,15.62745 -12.23884,24.83295 -1.2381,1.62897 -1.5865,2.01674 -1.86065,2.07088 -0.65666,0.12968 -4.33929,0.4137 -5.98107,0.46128 -1.975194,0.0572 -7.913336,-0.34106 -9.858613,-0.66126 z"
       id="path10"
       inkscape:export-filename="fav.svg"
       inkscape:export-xdpi="300"
       inkscape:export-ydpi="300" /><path
       style="fill:#fdc87f;fill-opacity:1;stroke:#000000;stroke-width:0.458873;stroke-dasharray:none;stroke-opacity:0"
       d="M 80.448568,123.61481 C 68.3841,119.3187 56.498356,113.5925 43.477927,105.80345 c -1.817477,-1.08724 -2.000605,-1.2274 -1.963389,-1.50261 0.113814,-0.84172 0.827413,-3.81699 1.359076,-5.666444 1.550384,-5.39331 4.057204,-10.871589 7.129484,-15.580391 1.258603,-1.929022 2.706889,-3.904559 2.830424,-3.860819 0.05657,0.02005 0.583741,0.450854 1.171535,0.957418 8.274663,7.131098 15.937216,11.778165 23.620085,14.324746 3.697122,1.22545 7.685729,2.053263 13.386137,2.77824 1.60261,0.203824 3.08351,0.39869 3.290873,0.433036 l 0.377022,0.06248 -0.272877,1.424354 c -1.324888,6.91566 -4.150066,13.96419 -8.770724,21.88203 -1.691388,2.89831 -2.101785,3.52128 -2.316071,3.5157 -0.109951,-0.003 -1.401876,-0.43323 -2.870934,-0.95637 z"
       id="path11" /><path
       style="fill:#fcae74;fill-opacity:1;stroke:#000000;stroke-width:0.434747;stroke-dasharray:none;stroke-opacity:0"
       d="m 53.060398,155.65836 c -7.2728,-8.5515 -11.67143,-18.7292 -13.00049,-30.08091 -0.24429,-2.08646 -0.34443,-7.63717 -0.17744,-9.83481 0.11934,-1.57064 0.46469,-4.67185 0.52864,-4.74716 0.0145,-0.0171 1.05626,0.58221 2.31502,1.33173 5.21321,3.10418 10.14576,5.78087 15.85796,8.60546 l 4.25209,2.10259 -0.0288,0.49466 c -0.785,13.49417 -2.41449,21.1947 -6.12438,28.94213 -0.83203,1.73755 -2.24327,4.34815 -2.40434,4.44769 -0.0525,0.0324 -0.60069,-0.53519 -1.21829,-1.26138 z"
       id="path12" /><path
       style="fill:#ea5d5e;fill-opacity:1;stroke:#000000;stroke-width:0.492594;stroke-dasharray:none;stroke-opacity:0"
       d="m 113.21747,136.71988 c -6.93165,-0.40706 -15.675887,-2.02324 -23.495311,-4.3426 l -2.316279,-0.68703 0.224074,-0.33993 c 1.372724,-2.08246 4.214437,-7.18742 5.665671,-10.17805 4.338756,-8.94108 6.146065,-15.71018 7.012335,-26.263974 0.62323,-7.592801 0.95292,-10.829883 1.11999,-10.996942 0.033,-0.03297 0.39706,-0.08169 0.80916,-0.108433 6.82486,-0.44195 12.30401,-1.36417 18.12993,-3.051523 0.74237,-0.215009 1.38297,-0.357718 1.42357,-0.317132 0.0406,0.04056 1.03136,4.335302 2.20172,9.543806 1.17038,5.208504 2.14338,9.485431 2.16223,9.504291 0.0188,0.0188 1.38249,0.0744 3.03029,0.12343 7.59558,0.22598 13.80376,-0.734542 19.41791,-3.004366 1.00356,-0.405737 3.67257,-1.671149 5.93116,-2.812004 2.25857,-1.140855 4.14936,-2.074292 4.20177,-2.074292 0.23235,0 2.23467,4.402276 3.29511,7.2446 1.16247,3.115749 2.30461,7.185609 2.84692,10.144539 l 0.18922,1.03241 -0.68085,1.31357 c -1.95484,3.77158 -4.64458,7.38879 -7.95834,10.70255 -8.61788,8.61788 -20.02187,13.5237 -33.76116,14.52354 -1.65173,0.1202 -7.67134,0.14793 -9.44912,0.0435 z"
       id="path13" /><path
       style="fill:#fde39d;fill-opacity:1;stroke:#000000;stroke-width:0.434747;stroke-dasharray:none;stroke-opacity:0"
       d="m 93.996002,90.689927 c -5.920004,-0.617663 -8.819137,-1.057933 -11.836515,-1.7975 -6.407558,-1.570513 -12.67979,-4.594556 -19.36345,-9.335749 -1.708228,-1.211771 -4.748389,-3.553012 -6.035689,-4.648117 l -0.512509,-0.435997 1.094068,-1.352797 c 1.406772,-1.739466 3.973235,-4.451117 5.689896,-6.011797 8.058712,-7.326439 18.244281,-12.189218 29.022404,-13.855815 4.756125,-0.735424 10.288503,-0.806147 15.301043,-0.195602 7.71481,0.939682 15.44312,3.66489 22.18972,7.824671 1.59318,0.982312 4.25585,2.79449 4.19229,2.853205 -0.0158,0.01464 -0.74643,0.292893 -1.62358,0.618412 -0.87716,0.325519 -3.78531,1.498055 -6.46255,2.605629 -5.85773,2.42334 -7.85119,3.199837 -10.32943,4.0235 -5.26685,1.750487 -10.47431,2.837198 -15.875486,3.312954 -1.912212,0.168435 -2.332845,0.23641 -2.371674,0.383303 -0.02593,0.09824 -0.128951,1.035172 -0.228859,2.082165 -0.171861,1.800736 -0.254287,3.076398 -0.532575,8.242017 -0.124542,2.311646 -0.339873,5.126614 -0.425596,5.563734 -0.05972,0.304422 -0.121454,0.308467 -1.891507,0.123824 z"
       id="path14" /><path
       style="fill:#cf4b65;fill-opacity:1;stroke:#000000;stroke-width:0.474633;stroke-dasharray:none;stroke-opacity:0"
       d="m 115.22201,180.7748 c 7.35674,-9.2087 11.79889,-17.6502 13.75357,-26.13609 0.91899,-3.98961 1.44079,-9.11028 1.34546,-13.20374 -0.0178,-0.76541 -0.013,-1.40769 0.0108,-1.42728 0.0237,-0.0195 0.78172,-0.1218 1.68439,-0.22711 6.65741,-0.77669 13.36918,-2.95614 18.92494,-6.14532 5.45399,-3.13075 10.34467,-7.41036 13.80264,-12.07802 1.46925,-1.98324 1.34638,-1.94182 1.36519,-0.46022 0.0792,6.24399 -0.8508,12.69917 -2.69285,18.69098 -3.12387,10.1614 -8.87142,19.31506 -16.69488,26.58862 -1.58665,1.47512 -4.79738,4.0756 -6.5007,5.26514 -6.25072,4.36528 -13.53995,7.63009 -20.90376,9.3627 -1.53007,0.36 -4.62815,0.94715 -4.86927,0.92283 -0.0744,-0.008 0.27405,-0.52613 0.77444,-1.15249 z"
       id="path16" /><g
       id="g23"
       transform="translate(-1.4640561,-0.78488334)"><path
         style="fill:#a54b65;fill-opacity:1;stroke:#000000;stroke-width:0.560924;stroke-dasharray:none;stroke-opacity:0"
         d="m 141.0044,90.746563 c -0.32191,-0.06645 0.0761,1.098985 -3.62124,-10.605596 l -3.08815,-9.776231 2.37747,-1.056174 c 2.40439,-1.068129 3.10124,-1.398519 10.81838,-5.129249 2.36041,-1.141119 5.37708,-2.547608 6.70372,-3.125545 l 2.41205,-1.050809 0.50701,0.347605 c 2.21051,1.515513 7.29906,5.858368 9.51731,8.122623 2.85754,2.916817 6.59114,7.469419 8.37063,10.206845 0.176,0.270761 -0.0937,0.460898 -4.44767,3.135054 -6.46018,3.967831 -9.43457,5.390437 -14.06072,6.725018 -3.29696,0.951144 -5.4511,1.321976 -10.4959,1.806845 -2.60021,0.249968 -4.84701,0.429796 -4.99289,0.399627 z"
         id="path15" /><path
         style="fill:#682e40;fill-opacity:1;stroke:none;stroke-width:0.389229;stroke-dasharray:none;stroke-opacity:1"
         d="m 492.48018,336.01486 -7.68484,-23.28352 11.44891,-22.61929 c 6.2969,-12.44061 11.5315,-22.52525 11.63245,-22.4103 0.10096,0.11494 4.71716,14.59593 10.25824,32.17998 5.54107,17.58404 10.87681,34.39169 11.85719,37.35034 0.98038,2.95864 1.75906,5.40279 1.7304,5.43145 -0.0286,0.0286 -7.14082,3.78322 -15.80481,8.34348 l -15.75271,8.29139 z"
         id="path22"
         transform="scale(0.26458333)" /><path
         style="fill:#692f41;fill-opacity:1;stroke:none;stroke-width:0.389229;stroke-dasharray:none;stroke-opacity:1"
         d="m 500.16501,359.29839 31.55752,-16.63487 c 15.15877,-0.7334 22.95071,-1.47594 46.8294,-4.65782 4.74099,-1.18247 19.33424,-5.40534 18.7032,-5.12406 -0.42525,0.18955 -43.45673,17.42828 -51.25051,19.60519 -6.77241,1.89163 -20.14545,4.63321 -32.29688,5.81289 -7.82599,0.75976 -13.84429,1.15763 -13.54273,0.99867 z"
         id="path23"
         transform="scale(0.26458333)"
         sodipodi:nodetypes="scccsss" /></g></g></svg>
